<svg xmlns="http://www.w3.org/2000/svg" xmlns:xlink="http://www.w3.org/1999/xlink" xmlns:lucid="lucid" width="1315.66" height="1202"><g transform="translate(241.65212673611111 621)" lucid:page-tab-id="0_0"><path d="M-500-1000h2000v2000H-500z" fill="#fff"/><path d="M-219.75-200.05v-.2A19.75 19.75 0 0 1-200-220a19.75 19.75 0 0 1 19.75 19.75A19.75 19.75 0 0 1-200-180.5a19.75 19.75 0 0 1-19.75-19.75v-.2" stroke="#000" stroke-width="2" fill="#fff"/><path d="M-240-214a6 6 0 0 1 6-6h68a6 6 0 0 1 6 6v146a6 6 0 0 1-6 6h-68a6 6 0 0 1-6-6z" fill="none"/><path d="M-200-180.5v55.3l40 63.2m-40-63.2L-240-62m0-98.75h80" stroke="#000" stroke-width="2" fill="none"/><use xlink:href="#a" transform="matrix(1,0,0,1,-320,-62) translate(79.34787326388889 21.52777777777778)"/><path d="M1000.25-200.05v-.2A19.75 19.75 0 0 1 1020-220a19.75 19.75 0 0 1 19.75 19.75A19.75 19.75 0 0 1 1020-180.5a19.75 19.75 0 0 1-19.75-19.75v-.2" stroke="#000" stroke-width="2" fill="#fff"/><path d="M980-214a6 6 0 0 1 6-6h68a6 6 0 0 1 6 6v146a6 6 0 0 1-6 6h-68a6 6 0 0 1-6-6z" fill="none"/><path d="M1020-180.5v55.3l40 63.2m-40-63.2L980-62m0-98.75h80" stroke="#000" stroke-width="2" fill="none"/><use xlink:href="#b" transform="matrix(1,0,0,1,900,-62) translate(66.00694444444446 21.52777777777778)"/><path d="M280-483.1c0 44.18-44.77 80-100 80s-100-35.82-100-80 44.77-80 100-80 100 35.82 100 80z" stroke="#000" stroke-width="2" fill="#fff"/><use xlink:href="#c" transform="matrix(1,0,0,1,85,-558.1019791666666) translate(2.1230555555555473 68.40277777777777)"/><use xlink:href="#d" transform="matrix(1,0,0,1,85,-558.1019791666666) translate(111.37869791666667 68.40277777777777)"/><use xlink:href="#e" transform="matrix(1,0,0,1,85,-558.1019791666666) translate(64.50369791666667 100.66840277777777)"/><path d="M280-251.55c0 44.18-44.77 80-100 80s-100-35.82-100-80 44.77-80 100-80 100 35.82 100 80z" stroke="#000" stroke-width="2" fill="#fff"/><use xlink:href="#f" transform="matrix(1,0,0,1,85,-326.5509895833333) translate(43.50217881944444 68.40277777777777)"/><use xlink:href="#g" transform="matrix(1,0,0,1,85,-326.5509895833333) translate(44.40821180555555 100.66840277777777)"/><path d="M280-20c0 44.18-44.77 80-100 80S80 24.18 80-20s44.77-80 100-80 100 35.82 100 80z" stroke="#000" stroke-width="2" fill="#fff"/><use xlink:href="#c" transform="matrix(1,0,0,1,85,-95) translate(10.218098958333329 82.46527777777777)"/><use xlink:href="#h" transform="matrix(1,0,0,1,85,-95) translate(119.47374131944444 82.46527777777777)"/><path d="M280 211.55c0 44.18-44.77 80-100 80s-100-35.82-100-80 44.77-80 100-80 100 35.82 100 80z" stroke="#000" stroke-width="2" fill="#fff"/><use xlink:href="#c" transform="matrix(1,0,0,1,85,136.55098958333332) translate(2.1230555555555473 68.40277777777777)"/><use xlink:href="#d" transform="matrix(1,0,0,1,85,136.55098958333332) translate(111.37869791666667 68.40277777777777)"/><use xlink:href="#i" transform="matrix(1,0,0,1,85,136.55098958333332) translate(52.85547743055555 100.66840277777777)"/><path d="M280 443.1c0 44.19-44.77 80-100 80s-100-35.81-100-80c0-44.18 44.77-80 100-80s100 35.82 100 80z" stroke="#000" stroke-width="2" fill="#fff"/><use xlink:href="#f" transform="matrix(1,0,0,1,85,368.10197916666664) translate(43.50217881944444 68.40277777777777)"/><use xlink:href="#j" transform="matrix(1,0,0,1,85,368.10197916666664) translate(34.34961805555556 100.66840277777777)"/><path d="M-159.4-160.8L78.4-482.3" stroke="#5e5e5e" stroke-width="2" fill="none"/><path d="M-158.6-160.25L-161-157l-1.57-1.17 1.17-1.58h1.4v-1.53zM79-483.1v1.28l-1.4-1.04 1.44-1.94z" stroke="#5e5e5e" stroke-width=".05" fill="#5e5e5e"/><path d="M-159.07-160.36L78.07-251.2" stroke="#5e5e5e" stroke-width="2" fill="none"/><path d="M-158.7-159.46l-3.75 1.44-.67-1.73h3.12v-1.3l.6-.23zM79-251.56v1.05l-.6.23-.7-1.82 1.33-.5z" stroke="#5e5e5e" stroke-width=".05" fill="#5e5e5e"/><path d="M-159.14-159.5l237.28 139" stroke="#5e5e5e" stroke-width="2" fill="none"/><path d="M-158.62-160.32l-1 1.68-1.88-1.1h1.5v-1.4zm-3.83-1.43l.35-.6 1.04.6zM79.03-21.1L79-20v1.14l-1.38-.82 1-1.68z" stroke="#5e5e5e" stroke-width=".05" fill="#5e5e5e"/><path d="M-159.37-159.22l259.6 319.7" stroke="#5e5e5e" stroke-width="2" fill="none"/><path d="M-158.6-159.82l-1.5 1.23-.95-1.15h1.05v-1.8zm-4-1.93l1.47-1.2.97 1.2zM101.55 160.55l-1.38 1.4-.7-.88 1.5-1.23z" stroke="#5e5e5e" stroke-width=".05" fill="#5e5e5e"/><path d="M-159.57-159.1l261.83 549.2" stroke="#5e5e5e" stroke-width="2" fill="none"/><path d="M-158.68-159.5l-1.76.84-.52-1.1h.96v-2h-1.9l-.27-.53 1.76-.83zM103.44 390.3l-1.36 1.25-.14.14-.57-1.2 1.76-.85z" stroke="#5e5e5e" stroke-width=".05" fill="#5e5e5e"/><path d="M660-411.55c0 44.18-44.77 80-100 80s-100-35.82-100-80 44.77-80 100-80 100 35.82 100 80z" stroke="#000" stroke-width="2" fill="#fff"/><use xlink:href="#k" transform="matrix(1,0,0,1,465,-486.5509895833333) translate(34.15473090277777 82.46527777777777)"/><use xlink:href="#l" transform="matrix(1,0,0,1,465,-486.5509895833333) translate(112.30143229166667 82.46527777777777)"/><path d="M760 360c0 44.18-44.77 80-100 80s-100-35.82-100-80 44.77-80 100-80 100 35.82 100 80z" stroke="#000" stroke-width="2" fill="#fff"/><use xlink:href="#k" transform="matrix(1,0,0,1,565,285) translate(27.069227430555543 82.46527777777777)"/><use xlink:href="#m" transform="matrix(1,0,0,1,565,285) translate(105.21592881944444 82.46527777777777)"/><path d="M483.77-480.03l-.33 1.92-10.03-1.78.35-1.92zm-20.04-3.53l-.34 1.92-20.05-3.53.33-1.92zm-129.26-22.76v1.98l-11.4-2 .34-1.93zm-21.1-3.72l-.32 1.92-20.05-3.53.34-1.92zm-30.06-5.3l-.32 1.93-10.03-1.78.34-1.92z" stroke="#5e5e5e" stroke-width=".05" fill="#5e5e5e"/><path d="M273.32-517.1l-.34 1.93-.25-.05-.93-1.7-.3-.5z" fill="#5e5e5e"/><path stroke="#5e5e5e" stroke-width=".05" fill="#5e5e5e"/><path d="M497.4-476.65l-14.1 5.14 2.6-14.8z" fill="#5e5e5e"/><path d="M499.3-476.3l-17.26 6.28 3.18-18.1zm-14.76 3.3l10.92-3.98-8.9-7.47z" stroke="#5e5e5e" stroke-width=".05" fill="#5e5e5e"/><use xlink:href="#n" transform="matrix(1,0,0,1,334.4697462190726,-507.05978620231036) translate(0 17.22222222222222)"/><path d="M272.4-302.64l-8.7 4.6-.9-1.72 8.67-4.6zm26-13.82l-17.34 9.2-.9-1.7 17.34-9.22zm26.04-13.8l-17.35 9.2-.93-1.73 17.35-9.2zm26.02-13.83l-17.35 9.22-.9-1.72 17.35-9.2zm26.03-13.8l-17.36 9.2-.92-1.72 14.7-7.8h3.4zm52.04-27.63l-10.95 5.8h-4.17l14.2-7.53zm17.35-9.2l-8.7 4.6-.9-1.73 8.67-4.6z" stroke="#5e5e5e" stroke-width=".05" fill="#5e5e5e"/><path d="M263.73-298.05l-.7.38-.4-.5-.94-1 1.12-.6z" fill="#5e5e5e"/><path stroke="#5e5e5e" stroke-width=".05" fill="#5e5e5e"/><path d="M457.8-402.16l-7.97 12.7-7.03-13.24z" fill="#5e5e5e"/><path d="M459.5-403.08l-9.74 15.58-8.62-16.23zm-9.6 11.68l6.16-9.85-11.6-.4z" stroke="#5e5e5e" stroke-width=".05" fill="#5e5e5e"/><use xlink:href="#n" transform="matrix(1,0,0,1,343.970680902806,-379.72113071131656) translate(0 17.22222222222222)"/><path d="M272-72.1l-6.2 7.5-1.5-1.25 6.2-7.5zm18.63-22.47l-12.4 14.98-1.5-1.23 12.4-14.98zm18.62-22.47l-12.4 14.98-1.5-1.24 12.4-14.98zm18.62-22.46l-12.4 14.97-1.5-1.24 12.4-14.98zm18.62-22.47L334.07-147l-1.5-1.24 12.4-14.98zm18.6-22.47l-12.4 14.98-1.5-1.25 12.4-15zm18.63-22.47l-12.42 14.97-1.5-1.25 12.43-14.98zm18.62-22.48l-12.42 14.98-1.5-1.25 12.4-14.98zm18.6-22.47l-12.4 14.98-1.5-1.25 12.4-14.98zm18.63-22.47l-12.4 14.98-1.5-1.25 12.4-14.96zm37.24-44.94l-12.4 14.98-1.5-1.24 12.4-14.98zm12.4-14.98l-6.2 7.5-1.5-1.25 6.2-7.48z" stroke="#5e5e5e" stroke-width=".05" fill="#5e5e5e"/><path d="M265.82-64.63l-.77.93-1.27-1.52.54-.65z" fill="#5e5e5e"/><path stroke="#5e5e5e" stroke-width=".05" fill="#5e5e5e"/><path d="M494.9-330.85l-11.55-9.57 14.06-5.2z" fill="#5e5e5e"/><path d="M495.57-329.02l-14.15-11.72 17.23-6.4zm-10.3-11.07l8.95 7.43 1.94-11.46z" stroke="#5e5e5e" stroke-width=".05" fill="#5e5e5e"/><use xlink:href="#n" transform="matrix(1,0,0,1,399.06988250460273,-299.5930352784902) translate(0 17.22222222222222)"/><path d="M564.9 305.56l-.47 1.9-9.56-2.4.47-1.9zm-19.12-4.78l-.47 1.9-19.1-4.8.46-1.9zm-28.68-7.18l-.47 1.9-12.73-3.2h8.03zm-91.08-22.8H418l-6.53-1.64.48-1.9zm-23.63-5.93l-.5 1.9-19.1-4.8.47-1.88zm-28.7-7.18l-.47 1.88-19.12-4.78.5-1.9zm-28.67-7.2l-.48 1.9-19.12-4.78.48-1.9zm-28.68-7.17l-.48 1.9-19.12-4.8.48-1.88zm-28.68-7.18l-.47 1.9-9.56-2.4.47-1.9z" stroke="#5e5e5e" stroke-width=".05" fill="#5e5e5e"/><path d="M278.13 233.76l-.47 1.9-1.12-.28.4-1.02.28-.82z" fill="#5e5e5e"/><path stroke="#5e5e5e" stroke-width=".05" fill="#5e5e5e"/><path d="M578.24 309.9l-14.42 4.13 3.64-14.55z" fill="#5e5e5e"/><path d="M580.13 310.38l-17.67 5.05 4.46-17.83zm-14.96 2.25l11.18-3.2-8.36-8.08z" stroke="#5e5e5e" stroke-width=".05" fill="#5e5e5e"/><use xlink:href="#n" transform="matrix(1,0,0,1,413.68413798491235,270.79052614074635) translate(0 17.22222222222222)"/><path d="M292.53 442.76l-10.42 1.2-.22-1.94 10.43-1.2zm31.3-3.6l-20.87 2.4-.22-1.94 20.86-2.4zm31.27-3.58l-20.85 2.4-.23-1.95 20.86-2.4zm31.3-3.6l-20.87 2.4-.22-1.94 20.87-2.4zm21.48-2.46l-11.06 1.27-.23-1.95 11.28-1.3zm103.65-11.9l-1.1.13v-1.97l.87-.1zm31.28-3.6l-20.85 2.4-.22-1.93 20.86-2.4zm20.87-2.38l-10.43 1.2-.22-1.94 10.43-1.2z" stroke="#5e5e5e" stroke-width=".05" fill="#5e5e5e"/><path d="M282.13 443.95l-1.15.14.02-1v-.98l.9-.1z" fill="#5e5e5e"/><path stroke="#5e5e5e" stroke-width=".05" fill="#5e5e5e"/><path d="M577.46 409.07L565.4 418l-1.7-14.9z" fill="#5e5e5e"/><path d="M579.4 408.85l-14.77 10.94-2.1-18.26zm-13.22 7.36l9.34-6.9-10.66-4.63z" stroke="#5e5e5e" stroke-width=".05" fill="#5e5e5e"/><use xlink:href="#n" transform="matrix(1,0,0,1,407.8786287352213,411.89568176078956) translate(0 17.22222222222222)"/><path d="M760 20c0 44.18-44.77 80-100 80S560 64.18 560 20s44.77-80 100-80 100 35.82 100 80z" stroke="#000" stroke-width="2" fill="#fff"/><use xlink:href="#o" transform="matrix(1,0,0,1,565,-55) translate(9.718541666666662 68.40277777777777)"/><use xlink:href="#p" transform="matrix(1,0,0,1,565,-55) translate(81.41993055555557 68.40277777777777)"/><use xlink:href="#q" transform="matrix(1,0,0,1,565,-55) translate(114.12392361111112 68.40277777777777)"/><use xlink:href="#r" transform="matrix(1,0,0,1,565,-55) translate(45.01042534722222 100.66840277777777)"/><use xlink:href="#s" transform="matrix(1,0,0,1,565,-55) translate(77.82292534722222 100.66840277777777)"/><path d="M880-420c0 44.18-44.77 80-100 80s-100-35.82-100-80 44.77-80 100-80 100 35.82 100 80z" stroke="#000" stroke-width="2" fill="#fff"/><use xlink:href="#t" transform="matrix(1,0,0,1,685,-495) translate(10.092890625000004 68.40277777777777)"/><use xlink:href="#u" transform="matrix(1,0,0,1,685,-495) translate(81.21919270833334 68.40277777777777)"/><use xlink:href="#v" transform="matrix(1,0,0,1,685,-495) translate(153.354609375 68.40277777777777)"/><use xlink:href="#w" transform="matrix(1,0,0,1,685,-495) translate(28.940546875000003 100.66840277777777)"/><path d="M697.56-82.45l-2.37 9.9-1.9-.46 2.36-9.9zm7.1-29.68l-4.74 19.78-1.9-.45 4.75-19.8zm7.1-29.7l-4.73 19.8-1.9-.45 4.74-19.8zm7.1-29.67l-4.72 19.8-1.9-.46 4.74-19.8zm2.38-9.9l-1.9-.44 1.55-6.47h2zm11.85-49.46l-4.75 19.8-1.9-.47 4.74-19.78zm7.1-29.68l-4.75 19.8-1.9-.47 4.75-19.8zm7.1-29.68l-4.74 19.8-1.9-.47 4.74-19.78zm7.1-29.68l-4.74 19.78-1.9-.45 4.75-19.8zm4.74-19.8l-2.37 9.9-1.9-.45 2.37-9.9z" stroke="#5e5e5e" stroke-width=".05" fill="#5e5e5e"/><path d="M759.4-340.72l-.27 1.06-1.9-.46.23-.94z" fill="#5e5e5e"/><path stroke="#5e5e5e" stroke-width=".05" fill="#5e5e5e"/><path d="M701.3-70.07l-10.32 10.9-4.27-14.4z" fill="#5e5e5e"/><path d="M703.17-70.62l-12.64 13.34-5.23-17.62zm-11.73 9.54l8-8.43-11.3-2.72z" stroke="#5e5e5e" stroke-width=".05" fill="#5e5e5e"/><use xlink:href="#x" transform="matrix(1,0,0,1,661.5495394504097,-209.8172711283283) translate(0 17.22222222222222)"/><path d="M753.57-12.66l225.6-148.54" stroke="#5e5e5e" stroke-width="2" fill="none"/><path d="M754.13-11.86l-.93.6-.93-1.7.78-.52zM983.04-162.6l-1.27.85H980v1.17l-.32.2-1.07-1.62 3.37-2.2zM580.68-31.35l-1.54 1.2L262.87-435.6l1.53-1.2z" stroke="#5e5e5e" stroke-width=".05" fill="#5e5e5e"/><path d="M264.42-436.77l-1.54 1.2-.52-.67 1.32-1.48z" fill="#5e5e5e"/><path stroke="#5e5e5e" stroke-width=".05" fill="#5e5e5e"/><path d="M581.2-30.66l-1.37 1.4-.7-.9 1.53-1.2z" fill="#5e5e5e"/><path stroke="#5e5e5e" stroke-width=".05" fill="#5e5e5e"/><path d="M275.2-222.1l291 209.9" stroke="#5e5e5e" stroke-width="2" fill="none"/><path d="M275.8-222.86l-1.15 1.58-.7-.5.26-.5.6-1.3zM567.45-12.5l-.9 1.76-.95-.7 1.14-1.57z" stroke="#5e5e5e" stroke-width=".05" fill="#5e5e5e"/><path d="M282-19.86l276 39.72" stroke="#5e5e5e" stroke-width="2" fill="none"/><path d="M282.15-20.82l-.27 1.93-.9-.12.02-.97v-1zM559.02 19.02L559 20v1l-1.15-.18.27-1.93z" stroke="#5e5e5e" stroke-width=".05" fill="#5e5e5e"/><path d="M273.06 177.95L569.76 58.2" stroke="#5e5e5e" stroke-width="2" fill="none"/><path d="M273.44 178.85l-.84.34-.8-1.47-.15-.26 1.07-.43zM570.15 57.04l1.1 1.6-1.16.47-.74-1.8.76-.3zM602.36 87.94l-333.3 314.93-1.33-1.42 333.3-314.93z" stroke="#5e5e5e" stroke-width=".05" fill="#5e5e5e"/><path d="M269.08 402.85l-.86.8-.55-.8-.6-.8.67-.62z" fill="#5e5e5e"/><path stroke="#5e5e5e" stroke-width=".05" fill="#5e5e5e"/><path d="M603.2 87l.1.05-.96.9-1.34-1.42.54-.5z" fill="#5e5e5e"/><path stroke="#5e5e5e" stroke-width=".05" fill="#5e5e5e"/><path d="M-20-614a6 6 0 0 1 6-6h928a6 6 0 0 1 6 6V574a6 6 0 0 1-6 6H-14a6 6 0 0 1-6-6z" stroke="#000" stroke-width="2" fill-opacity="0"/><defs><path d="M763 24c-353 0-583-224-583-531v-983h190v968c0 214 149 370 393 370 243 0 391-156 391-370v-968h190v983c0 307-230 531-581 531" id="y"/><path d="M538 24C308 24 148-78 108-271l171-41c32 123 123 178 257 178 156 0 256-77 256-169 0-77-54-128-164-154l-186-44c-203-48-300-148-300-305 0-192 176-326 414-326 230 0 351 112 402 269l-163 42c-31-80-94-158-238-158-133 0-233 69-233 162 0 83 57 129 188 160l169 40c203 48 298 149 298 302 0 196-179 339-441 339" id="z"/><path d="M537 14c-226 0-379-139-379-422v-710h180v695c0 172 97 275 253 275 160 0 281-109 281-300v-670h181V0H879v-209C806-46 684 14 537 14" id="A"/><path d="M471 26C259 26 90-98 90-318c0-256 228-303 435-329 202-27 287-16 287-108 0-139-79-219-234-219-161 0-248 86-283 164l-173-57c86-203 278-265 451-265 150 0 419 46 419 395V0H815v-152h-12C765-73 660 26 471 26zm31-159c199 0 310-134 310-271v-155c-30 35-226 55-295 64-131 17-246 59-246 186 0 116 97 176 231 176zm-23-1131l140-294h201l-194 294H479" id="B"/><path d="M158 0v-1118h174v172h12c41-113 157-188 290-188 26 0 70 2 91 3v181c-11-2-60-10-108-10-161 0-279 109-279 260V0H158" id="C"/><path d="M158 0v-1118h180V0H158zm91-1301c-68 0-125-53-125-119s57-119 125-119c69 0 126 53 126 119s-57 119-126 119" id="D"/><path d="M613 24c-304 0-509-231-509-576 0-350 205-580 509-580 305 0 511 230 511 580 0 345-206 576-511 576zm0-161c226 0 329-195 329-415 0-222-103-419-329-419-223 0-326 196-326 419 0 220 103 415 326 415" id="E"/><g id="a"><use transform="matrix(0.010850694444444444,0,0,0.010850694444444444,0,0)" xlink:href="#y"/><use transform="matrix(0.010850694444444444,0,0,0.010850694444444444,16.536458333333332,0)" xlink:href="#z"/><use transform="matrix(0.010850694444444444,0,0,0.010850694444444444,28.266059027777775,0)" xlink:href="#A"/><use transform="matrix(0.010850694444444444,0,0,0.010850694444444444,41.40625,0)" xlink:href="#B"/><use transform="matrix(0.010850694444444444,0,0,0.010850694444444444,53.88454861111112,0)" xlink:href="#C"/><use transform="matrix(0.010850694444444444,0,0,0.010850694444444444,62.59765625,0)" xlink:href="#D"/><use transform="matrix(0.010850694444444444,0,0,0.010850694444444444,67.97960069444444,0)" xlink:href="#E"/></g><path d="M370-1490V0H180v-1490h190" id="F"/><path d="M338-670V0H158v-1118h173l1 207c72-158 192-221 342-221 226 0 378 139 378 422V0H872v-695c0-172-96-275-252-275-161 0-282 109-282 300" id="G"/><path d="M598-1118v154H368v674c0 100 37 144 132 144 23 0 62-6 92-12L629-6c-37 13-88 20-134 20-193 0-307-107-307-290v-688H20v-154h168v-266h180v266h230" id="H"/><path d="M502 418V313h118c73 0 98-17 98-66s-25-65-98-65h-82l21-161C285-4 104-228 104-552c0-350 205-580 509-580 216 0 392 114 453 309l-173 49c-33-115-133-197-280-197-223 0-326 196-326 419 0 220 103 415 326 415 150 0 252-85 285-206l172 49C1015-110 859 5 663 22v64c130 5 189 54 189 162 0 118-71 170-231 170H502" id="I"/><path d="M471 26C259 26 90-98 90-318c0-256 228-303 435-329 202-27 287-16 287-108 0-139-79-219-234-219-161 0-248 86-283 164l-173-57c86-203 278-265 451-265 150 0 419 46 419 395V0H815v-152h-12C765-73 660 26 471 26zm31-159c199 0 310-134 310-271v-155c-30 35-226 55-295 64-131 17-246 59-246 186 0 116 97 176 231 176zm187-1180c-99 0-192-83-243-83-35 0-51 40-53 79H267c4-120 55-208 162-208 104 0 174 85 241 85 33 0 49-23 56-81h123c-4 126-62 208-160 208" id="J"/><g id="b"><use transform="matrix(0.010850694444444444,0,0,0.010850694444444444,0,0)" xlink:href="#F"/><use transform="matrix(0.010850694444444444,0,0,0.010850694444444444,5.967881944444445,0)" xlink:href="#G"/><use transform="matrix(0.010850694444444444,0,0,0.010850694444444444,19.09722222222222,0)" xlink:href="#z"/><use transform="matrix(0.010850694444444444,0,0,0.010850694444444444,30.826822916666664,0)" xlink:href="#H"/><use transform="matrix(0.010850694444444444,0,0,0.010850694444444444,38.09678819444444,0)" xlink:href="#D"/><use transform="matrix(0.010850694444444444,0,0,0.010850694444444444,43.478732638888886,0)" xlink:href="#H"/><use transform="matrix(0.010850694444444444,0,0,0.010850694444444444,50.748697916666664,0)" xlink:href="#A"/><use transform="matrix(0.010850694444444444,0,0,0.010850694444444444,63.888888888888886,0)" xlink:href="#D"/><use transform="matrix(0.010850694444444444,0,0,0.010850694444444444,69.27083333333333,0)" xlink:href="#I"/><use transform="matrix(0.010850694444444444,0,0,0.010850694444444444,82.18315972222221,0)" xlink:href="#J"/><use transform="matrix(0.010850694444444444,0,0,0.010850694444444444,94.66145833333333,0)" xlink:href="#E"/></g><path d="M783 20c-382 0-661-292-661-764 0-473 279-766 661-766 302 0 548 182 601 489h-190c-42-204-217-313-411-313-268 0-476 208-476 590 0 381 209 588 476 588 195 0 369-110 411-313h190c-52 303-296 489-601 489" id="K"/><path d="M471 26C259 26 90-98 90-318c0-256 228-303 435-329 202-27 287-16 287-108 0-139-79-219-234-219-161 0-248 86-283 164l-173-57c86-203 278-265 451-265 150 0 419 46 419 395V0H815v-152h-12C765-73 660 26 471 26zm31-159c199 0 310-134 310-271v-155c-30 35-226 55-295 64-131 17-246 59-246 186 0 116 97 176 231 176" id="L"/><path d="M577 24c-279 0-473-224-473-580 0-354 195-576 474-576 218 0 287 134 324 193h14v-551h180V0H922v-173h-20C865-111 790 24 577 24zm27-161c203 0 314-172 314-421 0-247-108-413-314-413-212 0-317 181-317 413 0 235 108 421 317 421" id="M"/><g id="c"><use transform="matrix(0.010850694444444444,0,0,0.010850694444444444,0,0)" xlink:href="#K"/><use transform="matrix(0.010850694444444444,0,0,0.010850694444444444,16.23263888888889,0)" xlink:href="#L"/><use transform="matrix(0.010850694444444444,0,0,0.010850694444444444,28.7109375,0)" xlink:href="#M"/><use transform="matrix(0.010850694444444444,0,0,0.010850694444444444,42.31770833333333,0)" xlink:href="#L"/><use transform="matrix(0.010850694444444444,0,0,0.010850694444444444,54.79600694444444,0)" xlink:href="#z"/><use transform="matrix(0.010850694444444444,0,0,0.010850694444444444,66.52560763888889,0)" xlink:href="#H"/><use transform="matrix(0.010850694444444444,0,0,0.010850694444444444,73.79557291666666,0)" xlink:href="#C"/><use transform="matrix(0.010850694444444444,0,0,0.010850694444444444,82.16145833333333,0)" xlink:href="#L"/><use transform="matrix(0.010850694444444444,0,0,0.010850694444444444,94.63975694444444,0)" xlink:href="#C"/></g><path d="M180 0v-1490h510c348 0 508 209 508 474 0 266-160 477-507 477H370V0H180zm190-706h312c236 0 327-133 327-310 0-176-91-307-329-307H370v617" id="N"/><path d="M628 24c-324 0-524-230-524-574 0-343 198-582 503-582 237 0 487 146 487 559v75H286c9 234 145 362 343 362 132 0 231-58 273-172l174 48C1024-91 857 24 628 24zM287-650h624c-17-190-120-322-304-322-192 0-309 151-320 322" id="O"/><g id="d"><use transform="matrix(0.010850694444444444,0,0,0.010850694444444444,0,0)" xlink:href="#N"/><use transform="matrix(0.010850694444444444,0,0,0.010850694444444444,14.073350694444445,0)" xlink:href="#O"/><use transform="matrix(0.010850694444444444,0,0,0.010850694444444444,27.029079861111104,0)" xlink:href="#z"/><use transform="matrix(0.010850694444444444,0,0,0.010850694444444444,38.75868055555555,0)" xlink:href="#z"/><use transform="matrix(0.010850694444444444,0,0,0.010850694444444444,50.488281249999986,0)" xlink:href="#E"/><use transform="matrix(0.010850694444444444,0,0,0.010850694444444444,64.02994791666666,0)" xlink:href="#L"/></g><path d="M180 0v-1490h901v168H370v510h643v168H370V0H180" id="P"/><path d="M158 0v-1118h180V0H158zm12-1264l140-294h201l-194 294H170" id="Q"/><path d="M613 24c-304 0-509-231-509-576 0-350 205-580 509-580 216 0 392 114 453 309l-173 49c-33-115-133-197-280-197-223 0-326 196-326 419 0 220 103 415 326 415 150 0 252-85 285-206l172 49C1010-95 832 24 613 24" id="R"/><g id="e"><use transform="matrix(0.010850694444444444,0,0,0.010850694444444444,0,0)" xlink:href="#P"/><use transform="matrix(0.010850694444444444,0,0,0.010850694444444444,13.118489583333332,0)" xlink:href="#Q"/><use transform="matrix(0.010850694444444444,0,0,0.010850694444444444,18.50043402777778,0)" xlink:href="#z"/><use transform="matrix(0.010850694444444444,0,0,0.010850694444444444,30.23003472222222,0)" xlink:href="#D"/><use transform="matrix(0.010850694444444444,0,0,0.010850694444444444,35.611979166666664,0)" xlink:href="#R"/><use transform="matrix(0.010850694444444444,0,0,0.010850694444444444,48.52430555555556,0)" xlink:href="#L"/></g><g id="f"><use transform="matrix(0.010850694444444444,0,0,0.010850694444444444,0,0)" xlink:href="#K"/><use transform="matrix(0.010850694444444444,0,0,0.010850694444444444,16.23263888888889,0)" xlink:href="#L"/><use transform="matrix(0.010850694444444444,0,0,0.010850694444444444,28.7109375,0)" xlink:href="#M"/><use transform="matrix(0.010850694444444444,0,0,0.010850694444444444,42.31770833333333,0)" xlink:href="#L"/><use transform="matrix(0.010850694444444444,0,0,0.010850694444444444,54.79600694444444,0)" xlink:href="#z"/><use transform="matrix(0.010850694444444444,0,0,0.010850694444444444,66.52560763888889,0)" xlink:href="#H"/><use transform="matrix(0.010850694444444444,0,0,0.010850694444444444,73.79557291666666,0)" xlink:href="#C"/><use transform="matrix(0.010850694444444444,0,0,0.010850694444444444,82.16145833333333,0)" xlink:href="#L"/><use transform="matrix(0.010850694444444444,0,0,0.010850694444444444,94.63975694444444,0)" xlink:href="#C"/></g><path d="M678-1118v154H420V0H240v-964H20v-154h220v-149c0-194 155-293 318-293 85 0 141 18 168 30l-50 154c-19-6-47-17-97-17-111 0-159 58-159 166v109h258" id="S"/><g id="g"><use transform="matrix(0.010850694444444444,0,0,0.010850694444444444,0,0)" xlink:href="#N"/><use transform="matrix(0.010850694444444444,0,0,0.010850694444444444,14.192708333333332,0)" xlink:href="#C"/><use transform="matrix(0.010850694444444444,0,0,0.010850694444444444,22.189670138888886,0)" xlink:href="#E"/><use transform="matrix(0.010850694444444444,0,0,0.010850694444444444,35.514322916666664,0)" xlink:href="#S"/><use transform="matrix(0.010850694444444444,0,0,0.010850694444444444,43.088107638888886,0)" xlink:href="#O"/><use transform="matrix(0.010850694444444444,0,0,0.010850694444444444,56.04383680555555,0)" xlink:href="#z"/><use transform="matrix(0.010850694444444444,0,0,0.010850694444444444,67.7734375,0)" xlink:href="#z"/><use transform="matrix(0.010850694444444444,0,0,0.010850694444444444,79.50303819444444,0)" xlink:href="#E"/><use transform="matrix(0.010850694444444444,0,0,0.010850694444444444,92.82769097222221,0)" xlink:href="#C"/></g><path d="M52 0l541-1490h220L1361 0h-200l-149-416H398L254 0H52zm404-582h497c-103-290-145-390-251-756-108 377-145 460-246 756" id="T"/><path d="M338-1490V0H158v-1490h180" id="U"/><g id="h"><use transform="matrix(0.010850694444444444,0,0,0.010850694444444444,0,0)" xlink:href="#T"/><use transform="matrix(0.010850694444444444,0,0,0.010850694444444444,15.33203125,0)" xlink:href="#U"/><use transform="matrix(0.010850694444444444,0,0,0.010850694444444444,20.713975694444443,0)" xlink:href="#A"/><use transform="matrix(0.010850694444444444,0,0,0.010850694444444444,33.854166666666664,0)" xlink:href="#G"/><use transform="matrix(0.010850694444444444,0,0,0.010850694444444444,46.98350694444444,0)" xlink:href="#E"/></g><path d="M545 20c-263 0-445-160-445-446v-80h190v80c0 182 102 279 255 279 152 0 254-97 254-279v-1064h190v1064c0 286-181 446-444 446" id="V"/><g id="i"><use transform="matrix(0.010850694444444444,0,0,0.010850694444444444,0,0)" xlink:href="#V"/><use transform="matrix(0.010850694444444444,0,0,0.010850694444444444,12.684461805555555,0)" xlink:href="#A"/><use transform="matrix(0.010850694444444444,0,0,0.010850694444444444,25.82465277777778,0)" xlink:href="#C"/><use transform="matrix(0.010850694444444444,0,0,0.010850694444444444,34.537760416666664,0)" xlink:href="#Q"/><use transform="matrix(0.010850694444444444,0,0,0.010850694444444444,39.91970486111111,0)" xlink:href="#M"/><use transform="matrix(0.010850694444444444,0,0,0.010850694444444444,53.52647569444444,0)" xlink:href="#D"/><use transform="matrix(0.010850694444444444,0,0,0.010850694444444444,58.908420138888886,0)" xlink:href="#R"/><use transform="matrix(0.010850694444444444,0,0,0.010850694444444444,71.82074652777777,0)" xlink:href="#L"/></g><g id="j"><use transform="matrix(0.010850694444444444,0,0,0.010850694444444444,0,0)" xlink:href="#P"/><use transform="matrix(0.010850694444444444,0,0,0.010850694444444444,12.239583333333332,0)" xlink:href="#E"/><use transform="matrix(0.010850694444444444,0,0,0.010850694444444444,25.564236111111104,0)" xlink:href="#C"/><use transform="matrix(0.010850694444444444,0,0,0.010850694444444444,34.27734374999999,0)" xlink:href="#G"/><use transform="matrix(0.010850694444444444,0,0,0.010850694444444444,47.40668402777778,0)" xlink:href="#O"/><use transform="matrix(0.010850694444444444,0,0,0.010850694444444444,60.362413194444436,0)" xlink:href="#R"/><use transform="matrix(0.010850694444444444,0,0,0.010850694444444444,73.05772569444443,0)" xlink:href="#O"/><use transform="matrix(0.010850694444444444,0,0,0.010850694444444444,86.0134548611111,0)" xlink:href="#M"/><use transform="matrix(0.010850694444444444,0,0,0.010850694444444444,99.62022569444441,0)" xlink:href="#E"/><use transform="matrix(0.010850694444444444,0,0,0.010850694444444444,112.9448784722222,0)" xlink:href="#C"/></g><path d="M600 0L52-1490h200c166 485 304 806 458 1336 156-533 285-846 449-1336h202L819 0H600" id="W"/><g id="k"><use transform="matrix(0.010850694444444444,0,0,0.010850694444444444,0,0)" xlink:href="#W"/><use transform="matrix(0.010850694444444444,0,0,0.010850694444444444,14.20355902777778,0)" xlink:href="#L"/><use transform="matrix(0.010850694444444444,0,0,0.010850694444444444,26.68185763888889,0)" xlink:href="#U"/><use transform="matrix(0.010850694444444444,0,0,0.010850694444444444,32.063802083333336,0)" xlink:href="#D"/><use transform="matrix(0.010850694444444444,0,0,0.010850694444444444,37.44574652777778,0)" xlink:href="#M"/><use transform="matrix(0.010850694444444444,0,0,0.010850694444444444,51.05251736111112,0)" xlink:href="#L"/><use transform="matrix(0.010850694444444444,0,0,0.010850694444444444,63.53081597222223,0)" xlink:href="#C"/></g><g id="l"><use transform="matrix(0.010850694444444444,0,0,0.010850694444444444,0,0)" xlink:href="#K"/><use transform="matrix(0.010850694444444444,0,0,0.010850694444444444,16.23263888888889,0)" xlink:href="#N"/><use transform="matrix(0.010850694444444444,0,0,0.010850694444444444,30.42534722222222,0)" xlink:href="#P"/></g><path d="M180 0v-1490h224l606 953c40 63 108 177 176 312-27-437-7-821-13-1265h190V0h-226C860-448 622-778 356-1262c27 476 11 792 15 1262H180" id="X"/><g id="m"><use transform="matrix(0.010850694444444444,0,0,0.010850694444444444,0,0)" xlink:href="#K"/><use transform="matrix(0.010850694444444444,0,0,0.010850694444444444,16.23263888888889,0)" xlink:href="#X"/><use transform="matrix(0.010850694444444444,0,0,0.010850694444444444,32.97526041666667,0)" xlink:href="#N"/><use transform="matrix(0.010850694444444444,0,0,0.010850694444444444,45.03038194444444,0)" xlink:href="#V"/></g><path fill="#333" d="M166-471v-247l1019-454v289L492-601v13l693 282v287" id="Y"/><path fill="#333" d="M128 0v-1118h300V0H128zm150-1264c-91 0-165-68-165-154 0-85 74-154 165-154 90 0 165 69 165 154 0 86-75 154-165 154" id="Z"/><path fill="#333" d="M428-647V0H128v-1118h283l4 231c63-156 176-245 348-245 232 0 384 159 384 421V0H847v-659c0-139-76-222-202-222-128 0-217 86-217 234" id="aa"/><path fill="#333" d="M628 22C291 22 81-210 81-554c0-346 210-578 547-578 265 0 455 142 497 372l-279 52c-25-116-99-188-215-188-160 0-244 139-244 341 0 200 84 341 244 341 116 0 193-74 217-195l279 51C1085-123 896 22 628 22" id="ab"/><path fill="#333" d="M428-1490V0H128v-1490h300" id="ac"/><path fill="#333" d="M513 14c-232 0-385-159-385-421v-711h300v659c0 139 76 222 202 222 127 0 217-86 217-234v-647h301V0H864l-4-232C797-74 683 14 513 14" id="ad"/><path fill="#333" d="M128 0v-1118h290v195h12c54-169 184-238 367-200v268c-27-8-86-15-130-15-138 0-239 95-239 234V0H128" id="ae"/><path fill="#333" d="M1224-471L205-19v-287l694-281v-14L205-883v-289l1019 454v247" id="af"/><g id="n"><use transform="matrix(0.008680555555555556,0,0,0.008680555555555556,0,0)" xlink:href="#Y"/><use transform="matrix(0.008680555555555556,0,0,0.008680555555555556,12.065972222222223,0)" xlink:href="#Y"/><use transform="matrix(0.008680555555555556,0,0,0.008680555555555556,24.131944444444446,0)" xlink:href="#Z"/><use transform="matrix(0.008680555555555556,0,0,0.008680555555555556,28.94965277777778,0)" xlink:href="#aa"/><use transform="matrix(0.008680555555555556,0,0,0.008680555555555556,40.017361111111114,0)" xlink:href="#ab"/><use transform="matrix(0.008680555555555556,0,0,0.008680555555555556,50.47743055555556,0)" xlink:href="#ac"/><use transform="matrix(0.008680555555555556,0,0,0.008680555555555556,55.29513888888889,0)" xlink:href="#ad"/><use transform="matrix(0.008680555555555556,0,0,0.008680555555555556,66.36284722222223,0)" xlink:href="#Z"/><use transform="matrix(0.008680555555555556,0,0,0.008680555555555556,71.18055555555556,0)" xlink:href="#ae"/><use transform="matrix(0.008680555555555556,0,0,0.008680555555555556,78.42013888888889,0)" xlink:href="#af"/><use transform="matrix(0.008680555555555556,0,0,0.008680555555555556,90.48611111111111,0)" xlink:href="#af"/></g><path d="M657 26c-323 0-524-166-541-416h195c15 169 171 246 346 246 202 0 356-106 356-265 5-203-294-238-475-293-239-73-380-191-380-389 0-252 224-419 512-419 294 0 499 171 508 396H992c-17-145-151-228-328-228-193 0-321 102-321 242 0 156 175 211 284 241l149 41c160 44 422 134 422 412 0 244-197 432-541 432" id="ag"/><path d="M481 0L54-1118h197c107 314 236 620 325 951 87-331 217-637 324-951h197L670 0H481" id="ah"/><g id="o"><use transform="matrix(0.010850694444444444,0,0,0.010850694444444444,0,0)" xlink:href="#ag"/><use transform="matrix(0.010850694444444444,0,0,0.010850694444444444,14.2578125,0)" xlink:href="#L"/><use transform="matrix(0.010850694444444444,0,0,0.010850694444444444,26.73611111111111,0)" xlink:href="#U"/><use transform="matrix(0.010850694444444444,0,0,0.010850694444444444,32.2265625,0)" xlink:href="#ah"/><use transform="matrix(0.010850694444444444,0,0,0.010850694444444444,44.60720486111111,0)" xlink:href="#L"/><use transform="matrix(0.010850694444444444,0,0,0.010850694444444444,57.08550347222223,0)" xlink:href="#C"/></g><g id="p"><use transform="matrix(0.010850694444444444,0,0,0.010850694444444444,0,0)" xlink:href="#G"/><use transform="matrix(0.010850694444444444,0,0,0.010850694444444444,13.129340277777777,0)" xlink:href="#E"/></g><path d="M180 0v-1490h528c311 0 458 177 458 395 0 191-114 278-244 313v14c139 9 302 137 302 371 0 225-148 397-499 397H180zm190-168h350c232 0 321-102 321-231 0-149-120-277-311-277H370v508zm0-668h328c160 0 286-101 286-255 0-129-87-231-280-231H370v486" id="ai"/><g id="q"><use transform="matrix(0.010850694444444444,0,0,0.010850694444444444,0,0)" xlink:href="#ai"/><use transform="matrix(0.010850694444444444,0,0,0.010850694444444444,14.539930555555555,0)" xlink:href="#L"/><use transform="matrix(0.010850694444444444,0,0,0.010850694444444444,27.018229166666664,0)" xlink:href="#G"/><use transform="matrix(0.010850694444444444,0,0,0.010850694444444444,40.14756944444444,0)" xlink:href="#R"/><use transform="matrix(0.010850694444444444,0,0,0.010850694444444444,52.84288194444444,0)" xlink:href="#E"/></g><g id="r"><use transform="matrix(0.010850694444444444,0,0,0.010850694444444444,0,0)" xlink:href="#M"/><use transform="matrix(0.010850694444444444,0,0,0.010850694444444444,13.606770833333332,0)" xlink:href="#O"/></g><path d="M645 0H180v-1490h484c435 0 692 280 692 742 0 466-257 748-711 748zM370-168h263c363 0 539-218 539-580 0-358-176-574-521-574H370v1154" id="aj"/><g id="s"><use transform="matrix(0.010850694444444444,0,0,0.010850694444444444,0,0)" xlink:href="#aj"/><use transform="matrix(0.010850694444444444,0,0,0.010850694444444444,16.03732638888889,0)" xlink:href="#L"/><use transform="matrix(0.010850694444444444,0,0,0.010850694444444444,28.515625,0)" xlink:href="#M"/><use transform="matrix(0.010850694444444444,0,0,0.010850694444444444,42.12239583333333,0)" xlink:href="#E"/><use transform="matrix(0.010850694444444444,0,0,0.010850694444444444,55.44704861111111,0)" xlink:href="#z"/></g><path d="M180 0v-1490h908v168H370v486h669v168H370v500h727V0H180" id="ak"/><g id="t"><use transform="matrix(0.010850694444444444,0,0,0.010850694444444444,0,0)" xlink:href="#ak"/><use transform="matrix(0.010850694444444444,0,0,0.010850694444444444,13.35720486111111,0)" xlink:href="#G"/><use transform="matrix(0.010850694444444444,0,0,0.010850694444444444,26.161024305555554,0)" xlink:href="#ah"/><use transform="matrix(0.010850694444444444,0,0,0.010850694444444444,38.65017361111111,0)" xlink:href="#D"/><use transform="matrix(0.010850694444444444,0,0,0.010850694444444444,44.03211805555555,0)" xlink:href="#L"/><use transform="matrix(0.010850694444444444,0,0,0.010850694444444444,56.51041666666666,0)" xlink:href="#C"/></g><path d="M798-719v166H144v-166h654" id="al"/><path d="M158 0v-1118h175l1 205c55-151 181-225 313-225 147 0 245 90 285 228 53-141 190-228 352-228 194 0 352 125 352 384V0h-181v-749c0-161-105-225-225-225-151 0-243 103-243 244V0H807v-767c0-124-93-207-219-207-131 0-250 92-250 270V0H158" id="am"/><g id="u"><use transform="matrix(0.010850694444444444,0,0,0.010850694444444444,0,0)" xlink:href="#O"/><use transform="matrix(0.010850694444444444,0,0,0.010850694444444444,12.955729166666666,0)" xlink:href="#al"/><use transform="matrix(0.010850694444444444,0,0,0.010850694444444444,23.177083333333332,0)" xlink:href="#am"/><use transform="matrix(0.010850694444444444,0,0,0.010850694444444444,42.643229166666664,0)" xlink:href="#L"/><use transform="matrix(0.010850694444444444,0,0,0.010850694444444444,55.12152777777778,0)" xlink:href="#D"/><use transform="matrix(0.010850694444444444,0,0,0.010850694444444444,60.50347222222221,0)" xlink:href="#U"/></g><g id="v"><use transform="matrix(0.010850694444444444,0,0,0.010850694444444444,0,0)" xlink:href="#M"/><use transform="matrix(0.010850694444444444,0,0,0.010850694444444444,13.606770833333332,0)" xlink:href="#O"/></g><g id="w"><use transform="matrix(0.010850694444444444,0,0,0.010850694444444444,0,0)" xlink:href="#R"/><use transform="matrix(0.010850694444444444,0,0,0.010850694444444444,12.6953125,0)" xlink:href="#E"/><use transform="matrix(0.010850694444444444,0,0,0.010850694444444444,26.01996527777778,0)" xlink:href="#G"/><use transform="matrix(0.010850694444444444,0,0,0.010850694444444444,39.14930555555556,0)" xlink:href="#S"/><use transform="matrix(0.010850694444444444,0,0,0.010850694444444444,47.37413194444444,0)" xlink:href="#D"/><use transform="matrix(0.010850694444444444,0,0,0.010850694444444444,52.756076388888886,0)" xlink:href="#C"/><use transform="matrix(0.010850694444444444,0,0,0.010850694444444444,61.46918402777778,0)" xlink:href="#am"/><use transform="matrix(0.010850694444444444,0,0,0.010850694444444444,80.9353298611111,0)" xlink:href="#L"/><use transform="matrix(0.010850694444444444,0,0,0.010850694444444444,93.41362847222221,0)" xlink:href="#I"/><use transform="matrix(0.010850694444444444,0,0,0.010850694444444444,106.32595486111111,0)" xlink:href="#J"/><use transform="matrix(0.010850694444444444,0,0,0.010850694444444444,118.80425347222221,0)" xlink:href="#E"/></g><path fill="#333" d="M633 22C291 22 81-200 81-553c0-345 210-579 537-579 292 0 525 185 525 567v84H378c7 183 109 277 260 277 105 0 184-46 216-132l272 51C1071-99 893 22 633 22zM380-669h474c-15-146-94-237-233-237-143 0-229 99-241 237" id="an"/><path fill="#333" d="M572 22C302 22 117-98 78-306l279-48c29 105 101 156 224 156 114 0 185-48 185-115 0-118-228-130-337-155-215-49-322-150-322-317 0-215 187-347 470-347 265 0 424 116 466 298l-266 47c-24-76-87-130-196-130-98 0-174 46-174 113 0 56 38 95 144 117l201 40c216 44 320 143 320 302 0 220-207 367-500 367" id="ao"/><path fill="#333" d="M683-1118v229H474v562c0 71 29 104 102 104 23 0 73-7 95-13l43 225C647 9 580 16 520 16 296 16 174-96 174-301v-588H20v-229h154v-266h300v266h209" id="ap"/><path fill="#333" d="M537 19C279 19 81-185 81-557c0-382 206-575 454-575 190 0 278 113 318 202h10v-560h300V0H868v-179h-15C812-89 719 19 537 19zm92-241c153 0 240-134 240-336 0-203-86-334-240-334-158 0-240 138-240 334 0 197 84 336 240 336" id="aq"/><g id="x"><use transform="matrix(0.008680555555555556,0,0,0.008680555555555556,0,0)" xlink:href="#Y"/><use transform="matrix(0.008680555555555556,0,0,0.008680555555555556,12.065972222222223,0)" xlink:href="#Y"/><use transform="matrix(0.008680555555555556,0,0,0.008680555555555556,24.131944444444446,0)" xlink:href="#an"/><use transform="matrix(0.008680555555555556,0,0,0.008680555555555556,34.72222222222223,0)" xlink:href="#ao"/><use transform="matrix(0.008680555555555556,0,0,0.008680555555555556,44.67881944444445,0)" xlink:href="#ap"/><use transform="matrix(0.008680555555555556,0,0,0.008680555555555556,51.015625,0)" xlink:href="#an"/><use transform="matrix(0.008680555555555556,0,0,0.008680555555555556,61.60590277777778,0)" xlink:href="#aa"/><use transform="matrix(0.008680555555555556,0,0,0.008680555555555556,72.67361111111111,0)" xlink:href="#aq"/><use transform="matrix(0.008680555555555556,0,0,0.008680555555555556,83.88020833333334,0)" xlink:href="#an"/><use transform="matrix(0.008680555555555556,0,0,0.008680555555555556,94.47048611111111,0)" xlink:href="#ae"/><use transform="matrix(0.008680555555555556,0,0,0.008680555555555556,101.71006944444444,0)" xlink:href="#af"/><use transform="matrix(0.008680555555555556,0,0,0.008680555555555556,113.77604166666667,0)" xlink:href="#af"/></g></defs></g></svg>